<svg width="196" height="504" viewBox="0 0 196 504" fill="none" xmlns="http://www.w3.org/2000/svg">
<path d="M174.02 367.45C160.844 375.751 147.93 384.47 135.387 393.696C109.145 413.001 84.551 434.563 62.535 458.598C67.0038 441.434 69.2498 422.555 80.332 408.168C91.699 393.406 106.949 381.398 119.578 367.695C134.039 352.004 147.41 335.261 160.867 318.711C172.59 304.301 188.812 289.383 195.414 271.988C170.266 280.535 153.519 305.554 136.519 324.847C116.957 347.046 97.66 369.46 78.347 391.874C80.2845 378.64 80.2415 363.89 89.523 353.37C98.2964 343.429 108.859 335.323 117.289 324.983C135.316 302.87 141.914 277.288 148.793 250.163C150.586 243.097 153.812 234.964 154.148 227.718C154.512 219.843 150.16 220.628 146.074 225.753C142.547 230.183 140.547 236.976 138.027 242.105C134.613 249.062 131.199 256.019 127.734 262.953C114.324 289.777 99.7964 316.031 85.6564 342.473C86.715 329.09 86.7892 315.055 88.7931 301.801C91.004 287.168 100.367 274.461 107.457 261.84C122.191 235.61 135.687 208.832 143.234 179.559C145.148 172.137 146.621 164.633 147.844 157.075C148.269 154.438 150.586 142.173 144.043 145.376C140.289 147.212 137.543 157.298 135.531 161.22C132.262 167.599 128.867 173.919 125.484 180.24C111.992 205.428 98.492 230.865 91.152 258.65C89.8239 243.525 88.4879 228.392 87.1598 213.267C86.0973 201.13 82.3981 186.904 88.3981 175.634C94.6129 163.962 102.968 153.849 108.367 141.607C114.019 128.783 117.16 115.115 118.289 101.169C119.441 86.8962 119.062 71.8882 116.723 57.7392C114.051 41.5832 106.625 64.6767 105.141 69.6962C100.851 84.2002 96.6054 98.7192 92.3636 113.235C88.5511 126.278 85.5706 139.934 79.8866 152.282C75.6913 137.868 71.2694 123.493 67.2146 109.04C63.3123 95.1142 64.7498 81.4502 62.6404 67.3802C60.5115 53.1772 53.6677 41.9542 45.3824 30.5322C38.0582 20.4382 30.1444 5.8912 19.0854 0.00520325C19.8744 12.0402 24.5659 23.5132 28.3081 34.9662C31.7456 45.4932 35.2339 56.0712 39.5701 66.2712C43.781 76.1814 48.9451 85.7362 56.0231 93.9122C63.82 102.916 65.1012 114.088 67.9531 125.463C58.0508 118.205 49.2301 109.233 40.5511 100.576C32.2503 92.2989 25.7271 82.3302 16.0161 75.5212C15.2505 87.1582 22.0473 99.4432 27.6411 109.568C33.2036 119.646 40.3211 128.923 49.5671 135.888C55.0398 140.009 60.9301 142.462 67.0281 145.435C72.7664 148.228 73.8836 151.181 74.9461 157.302C77.9149 174.392 80.1727 191.646 82.7859 208.798C76.8484 193.833 70.0399 179.056 60.5239 165.993C52.3325 154.743 40.7739 137.282 27.7699 132.352C26.6761 142.836 31.5394 151.657 35.2621 161.422C38.6293 170.254 42.4652 178.883 46.8561 187.254C55.7936 204.305 66.3361 222.41 80.7541 235.285C81.4103 238.141 83.715 240.836 84.383 243.883C86.1018 251.785 84.7463 260.75 84.7463 268.832C84.7502 287.305 83.8283 305.559 82.7541 323.992C73.2893 301.691 73.6877 276.164 65.7851 253.117C58.6913 232.426 49.5781 210.496 34.3281 194.64C35.6093 213.027 41.289 230.902 45.7971 248.757C50.3909 266.945 55.008 285.245 60.7031 303.128C63.5469 312.065 66.9258 320.874 71.5741 329.046C76.0702 336.948 80.41 341.198 79.6093 350.679C78.0468 369.175 74.0468 387.632 70.914 405.913C61.3007 382.37 57.859 358.503 53.816 333.628C51.7926 321.194 48.441 309.351 43.8355 297.636C39.9566 287.753 37.0582 275.109 28.0305 269.351C23.9367 284.011 31.4133 304.714 34.4875 319.574C37.4719 333.996 40.7023 348.402 45.1945 362.437C49.7883 376.789 56.4915 389.535 63.0035 403.015C70.3043 418.124 65.7301 430.171 61.398 445.327C60.3668 448.94 56.7613 468.405 52.7418 465.772C50.4332 464.26 50.7301 448.03 50.4215 444.768C49.0621 430.28 48.4801 416.17 44.609 402.03C37.6246 376.499 23.457 344.87 2.73798 327.835C-3.59402 339.046 5.73019 358.155 9.07779 369.288C13.4528 383.831 18.7653 398.143 23.8788 412.44C28.953 426.631 34.4058 440.733 41.3278 454.139C44.2692 459.83 51.4138 467.725 51.6598 474.35C51.8942 480.643 46.5153 489.088 44.2457 494.733C49.4332 491.655 52.4215 481.866 55.4527 475.983C58.2925 470.471 62.3004 465.706 67.0937 461.792C77.8907 452.979 91.9297 448.202 103.735 440.827C129.333 424.839 151.583 404.225 172.458 382.581C176.813 378.069 184.298 372.444 186.794 366.554C191.583 355.269 177.309 365.374 174.021 367.448L174.02 367.45ZM130.106 339.036C145.001 321.794 158.958 301.946 178.536 289.946C147.204 324.243 121.145 365.567 83.747 395.606C97.935 375.696 114.122 357.532 130.106 339.036ZM101.95 320.481C106.739 311.493 111.536 302.512 116.348 293.528C121.453 283.985 126.567 274.45 131.688 264.911C135.618 257.579 139.317 247.227 144.747 241.345C142.864 243.181 142.766 249.302 142.251 252.361C141.259 258.224 140.149 264.033 138.61 269.783C136.118 279.08 132.899 288.209 128.786 296.916C120.704 314.041 108.614 331.744 92.2471 341.807C93.5479 339.233 94.0205 336.112 95.1494 333.467C97.0556 329.002 99.6689 324.76 101.95 320.483L101.95 320.481ZM139.372 164.711C137.962 170.148 137.161 181.539 134.927 189.016C131.688 199.856 127.685 210.446 123.126 220.797C114.231 240.985 103.118 259.973 91.8487 278.902C96.0401 237.468 120.232 200.699 139.372 164.712L139.372 164.711ZM28.302 14.161C28.3293 14.2001 28.3567 14.2352 28.3801 14.2743C27.9543 14.3485 27.2863 14.6337 28.302 14.161ZM58.251 89.114C49.9463 78.087 45.88 65.837 40.931 52.954C36.8138 42.235 27.025 25.919 28.544 14.493C36.8878 26.13 47.048 37.583 52.853 50.774C58.146 62.79 58.6421 76.192 58.2514 89.114H58.251ZM24.493 90.7546C40.391 107.388 58.665 121.841 71.067 141.653C45.005 134.032 33.071 113.88 24.493 90.7546ZM53.837 190.583C46.4386 176.97 34.692 158.306 35.087 142.294C45.782 154.755 56.923 166.63 64.638 181.263C71.4271 194.138 75.974 208.06 79.607 222.115C80.7554 226.56 79.8531 230.997 80.7008 235.119C80.7047 235.154 80.7242 235.181 80.736 235.212C73.8141 219.493 62.091 205.771 53.838 190.583L53.837 190.583ZM84.208 173.368C80.1885 157.095 90.6299 136.04 95.216 120.61C100.857 101.649 106.607 82.7186 112.278 63.7696C117.868 103.368 109.044 141.704 84.208 173.37V173.368ZM44.497 221.841C58.782 237.415 70.685 278.708 73.747 323.011C59.466 291.031 53.849 256.558 44.497 221.841ZM42.0947 333.861C38.583 317.927 35.6924 301.857 33.083 285.756C43.0518 299.615 45.958 316.635 48.927 333.049C50.6067 342.349 52.1301 351.682 53.6575 361.01C54.138 363.967 54.2551 369.853 54.8567 374.608C49.9114 361.124 45.22 348.069 42.0947 333.862V333.861ZM46.3486 456.481C28.1106 416.106 14.6376 377.028 5.7706 336.361C32.9936 370.673 48.5796 409.017 46.3486 456.481ZM172.679 376.18C166.956 384.574 157.191 392.016 149.808 398.985C142.636 405.754 135.3 412.356 127.671 418.618C113.026 430.653 96.6236 443.493 78.3386 449.114C82.9714 441.996 92.2996 435.04 98.2256 429.532C106.597 421.743 115.82 414.899 124.894 407.95C133.886 401.067 142.953 394.282 152.027 387.505C156.562 384.118 161.097 380.727 165.629 377.329C166.504 376.672 172.086 371.313 173.172 371.657C176.699 372.762 173.609 374.817 172.679 376.18L172.679 376.18Z" fill="black"/>
<path d="M40.68 504C42.0238 501.047 43.3675 498.098 44.7191 495.144C42.348 495.914 37.2503 502.008 40.68 504Z" fill="black"/>
</svg>
